<mxfile host="app.diagrams.net" agent="Mozilla/5.0 (Windows NT 10.0; Win64; x64) AppleWebKit/537.36 (KHTML, like Gecko) Chrome/134.0.0.0 Safari/537.36" version="26.1.1">
  <diagram name="Страница — 1" id="ci4EnhZKrp7OGgwJ4SWP">
    <mxGraphModel dx="728" dy="422" grid="1" gridSize="10" guides="1" tooltips="1" connect="1" arrows="1" fold="1" page="1" pageScale="1" pageWidth="827" pageHeight="1169" math="0" shadow="0">
      <root>
        <mxCell id="0" />
        <mxCell id="1" parent="0" />
        <mxCell id="B2WwLtav-ZtW_rzxNgK4-1" value="Пользователь" style="shape=umlActor;verticalLabelPosition=bottom;verticalAlign=top;html=1;outlineConnect=0;fillColor=#b1ddf0;strokeColor=#10739e;" vertex="1" parent="1">
          <mxGeometry x="380" y="220" width="40" height="90" as="geometry" />
        </mxCell>
        <mxCell id="B2WwLtav-ZtW_rzxNgK4-2" value="Создание репозитория" style="ellipse;whiteSpace=wrap;html=1;" vertex="1" parent="1">
          <mxGeometry x="320" y="60" width="160" height="100" as="geometry" />
        </mxCell>
        <mxCell id="B2WwLtav-ZtW_rzxNgK4-3" value="Создание базы данных репозитория" style="ellipse;whiteSpace=wrap;html=1;" vertex="1" parent="1">
          <mxGeometry x="490" y="120" width="160" height="100" as="geometry" />
        </mxCell>
        <mxCell id="B2WwLtav-ZtW_rzxNgK4-4" value="Отображение файлов в репозитории" style="ellipse;whiteSpace=wrap;html=1;" vertex="1" parent="1">
          <mxGeometry x="150" y="120" width="160" height="100" as="geometry" />
        </mxCell>
        <mxCell id="B2WwLtav-ZtW_rzxNgK4-6" value="Очистка окна консоли&amp;nbsp;" style="ellipse;whiteSpace=wrap;html=1;" vertex="1" parent="1">
          <mxGeometry x="150" y="240" width="160" height="100" as="geometry" />
        </mxCell>
        <mxCell id="B2WwLtav-ZtW_rzxNgK4-7" value="Сохранение файлов репозитория в&amp;nbsp;&lt;div&gt;базу данных&lt;/div&gt;" style="ellipse;whiteSpace=wrap;html=1;" vertex="1" parent="1">
          <mxGeometry x="490" y="240" width="160" height="100" as="geometry" />
        </mxCell>
        <mxCell id="B2WwLtav-ZtW_rzxNgK4-8" value="Загрузка файлов из базы данных в репозиторий" style="ellipse;whiteSpace=wrap;html=1;" vertex="1" parent="1">
          <mxGeometry x="420" y="360" width="160" height="100" as="geometry" />
        </mxCell>
        <mxCell id="B2WwLtav-ZtW_rzxNgK4-9" value="Вывод информации&amp;nbsp;&lt;div&gt;из базы данных в консоль&lt;/div&gt;" style="ellipse;whiteSpace=wrap;html=1;align=center;" vertex="1" parent="1">
          <mxGeometry x="220" y="360" width="160" height="100" as="geometry" />
        </mxCell>
        <mxCell id="B2WwLtav-ZtW_rzxNgK4-13" value="" style="endArrow=none;html=1;rounded=0;entryX=0;entryY=0.3333333333333333;entryDx=0;entryDy=0;entryPerimeter=0;exitX=1;exitY=0.5;exitDx=0;exitDy=0;" edge="1" parent="1" source="B2WwLtav-ZtW_rzxNgK4-6" target="B2WwLtav-ZtW_rzxNgK4-1">
          <mxGeometry width="50" height="50" relative="1" as="geometry">
            <mxPoint x="330" y="320" as="sourcePoint" />
            <mxPoint x="380" y="270" as="targetPoint" />
          </mxGeometry>
        </mxCell>
        <mxCell id="B2WwLtav-ZtW_rzxNgK4-14" value="" style="endArrow=none;html=1;rounded=0;entryX=0;entryY=0.3333333333333333;entryDx=0;entryDy=0;entryPerimeter=0;exitX=0.5;exitY=0;exitDx=0;exitDy=0;" edge="1" parent="1" source="B2WwLtav-ZtW_rzxNgK4-9" target="B2WwLtav-ZtW_rzxNgK4-1">
          <mxGeometry width="50" height="50" relative="1" as="geometry">
            <mxPoint x="330" y="310" as="sourcePoint" />
            <mxPoint x="380" y="260" as="targetPoint" />
          </mxGeometry>
        </mxCell>
        <mxCell id="B2WwLtav-ZtW_rzxNgK4-15" value="" style="endArrow=none;html=1;rounded=0;entryX=1;entryY=0.3333333333333333;entryDx=0;entryDy=0;entryPerimeter=0;exitX=0.5;exitY=0;exitDx=0;exitDy=0;" edge="1" parent="1" source="B2WwLtav-ZtW_rzxNgK4-8" target="B2WwLtav-ZtW_rzxNgK4-1">
          <mxGeometry width="50" height="50" relative="1" as="geometry">
            <mxPoint x="330" y="320" as="sourcePoint" />
            <mxPoint x="380" y="270" as="targetPoint" />
          </mxGeometry>
        </mxCell>
        <mxCell id="B2WwLtav-ZtW_rzxNgK4-16" value="" style="endArrow=none;html=1;rounded=0;entryX=1;entryY=0.3333333333333333;entryDx=0;entryDy=0;entryPerimeter=0;exitX=0;exitY=0.5;exitDx=0;exitDy=0;" edge="1" parent="1" source="B2WwLtav-ZtW_rzxNgK4-7" target="B2WwLtav-ZtW_rzxNgK4-1">
          <mxGeometry width="50" height="50" relative="1" as="geometry">
            <mxPoint x="330" y="320" as="sourcePoint" />
            <mxPoint x="380" y="270" as="targetPoint" />
          </mxGeometry>
        </mxCell>
        <mxCell id="B2WwLtav-ZtW_rzxNgK4-17" value="" style="endArrow=none;html=1;rounded=0;entryX=0;entryY=0.3333333333333333;entryDx=0;entryDy=0;entryPerimeter=0;exitX=1;exitY=0.5;exitDx=0;exitDy=0;" edge="1" parent="1" source="B2WwLtav-ZtW_rzxNgK4-4" target="B2WwLtav-ZtW_rzxNgK4-1">
          <mxGeometry width="50" height="50" relative="1" as="geometry">
            <mxPoint x="330" y="320" as="sourcePoint" />
            <mxPoint x="380" y="270" as="targetPoint" />
          </mxGeometry>
        </mxCell>
        <mxCell id="B2WwLtav-ZtW_rzxNgK4-18" value="" style="endArrow=none;html=1;rounded=0;entryX=1;entryY=0.3333333333333333;entryDx=0;entryDy=0;entryPerimeter=0;exitX=0;exitY=0.5;exitDx=0;exitDy=0;" edge="1" parent="1" source="B2WwLtav-ZtW_rzxNgK4-3" target="B2WwLtav-ZtW_rzxNgK4-1">
          <mxGeometry width="50" height="50" relative="1" as="geometry">
            <mxPoint x="330" y="320" as="sourcePoint" />
            <mxPoint x="380" y="270" as="targetPoint" />
          </mxGeometry>
        </mxCell>
        <mxCell id="B2WwLtav-ZtW_rzxNgK4-19" value="" style="endArrow=none;html=1;rounded=0;entryX=0;entryY=0.3333333333333333;entryDx=0;entryDy=0;entryPerimeter=0;exitX=0.5;exitY=1;exitDx=0;exitDy=0;" edge="1" parent="1" source="B2WwLtav-ZtW_rzxNgK4-2" target="B2WwLtav-ZtW_rzxNgK4-1">
          <mxGeometry width="50" height="50" relative="1" as="geometry">
            <mxPoint x="330" y="320" as="sourcePoint" />
            <mxPoint x="380" y="270" as="targetPoint" />
          </mxGeometry>
        </mxCell>
      </root>
    </mxGraphModel>
  </diagram>
</mxfile>
